<svg id="Layer_1" data-name="Layer 1" xmlns="http://www.w3.org/2000/svg" viewBox="0 0 28.855 28.855"><defs><style>.cls-1{fill:#56b464;}</style></defs><title>Tick</title><path class="cls-1" d="M11.509,19.514a1,1,0,0,1-.707-0.293L7.883,16.3A1,1,0,0,1,9.3,14.888l2.236,2.235,8.05-7.514a1,1,0,0,1,1.365,1.463l-8.757,8.173A1,1,0,0,1,11.509,19.514Z"/><path class="cls-1" d="M14.428,28.855A14.427,14.427,0,1,1,28.854,14.427,14.445,14.445,0,0,1,14.428,28.855ZM14.428,2A12.427,12.427,0,1,0,26.854,14.427,12.441,12.441,0,0,0,14.428,2Z"/></svg>