<svg id="Layer_1" data-name="Layer 1" xmlns="http://www.w3.org/2000/svg" viewBox="0 0 37 37"><defs><style>.cls-1,.cls-2{fill:none;stroke:#ee068f;stroke-miterlimit:10;}.cls-1{stroke-width:2px;}.cls-2{stroke-width:0.5px;}</style></defs><title>icon</title><circle class="cls-1" cx="18.5" cy="18.5" r="17.5"/><path class="cls-2" d="M25.964,21.544a2.162,2.162,0,0,1-1.826,1.3H13.7a0.855,0.855,0,0,1-.783-1.3l2.435-6.087a2.162,2.162,0,0,1,1.827-1.3H27.617a0.855,0.855,0,0,1,.782,1.3Z"/><polyline class="cls-2" points="26.486 15.891 20.312 19.37 16.921 15.891"/><line class="cls-2" x1="14.66" y1="21.544" x2="17.704" y2="19.37"/><line class="cls-2" x1="24.225" y1="21.544" x2="22.921" y2="19.37"/><line class="cls-2" x1="12.848" y1="14.152" x2="8.5" y2="14.152"/><line class="cls-2" x1="10.239" y1="21.978" x2="8.5" y2="21.978"/><line class="cls-2" x1="11.109" y1="17.63" x2="8.5" y2="17.63"/></svg>