<?xml version="1.0" encoding="utf-8"?>
<!-- Generator: Adobe Illustrator 19.1.0, SVG Export Plug-In . SVG Version: 6.00 Build 0)  -->
<svg version="1.1" id="online_doctor" xmlns="http://www.w3.org/2000/svg" xmlns:xlink="http://www.w3.org/1999/xlink" x="0px"
	 y="0px" viewBox="0 0 756 235" style="enable-background:new 0 0 756 235;" xml:space="preserve">
<style type="text/css">
	.st0{fill:#FFFFFF;}
</style>
<path id="XMLID_10_" class="st0" d="M710.2,71.1c-0.1-0.1,19.7,14.7,26.7,11.3c7.2-3.5-2.7-27.8-2.8-31c5.3-5,16.3-13.9,16.3-20.1
	c0-6.2-9.1-7.5-26.7-7.2c-2.8-6.1-10.9-24-17.2-24c-6.7,0-11.8,19.5-12.8,24.5c-16.2,0.9-28.6,2.3-28.6,9.6
	c0,6.3,12.8,16.2,20.4,20.2c-1.3,7.2-5.3,25.1-0.7,28.7C690.6,87.6,704.3,75.6,710.2,71.1 M706.9,13.6c2,5.5,7,16.5,10.7,19
	c3.3,2.2,14.7,1.8,21.3,1.5c-4.2,3.9-13.3,9-15,15.6c-1.4,5.4,3,16.3,5.1,21.4c-4.4-3.4-14.5-10.1-18.5-10.1
	c-5.1,0-14,8.4-17.6,11.6c0.9-3.9,4.9-16.4,3.2-21.7c-1.8-5.2-9.5-9.5-17.6-15.1c8.2-0.9,19.1-0.4,22.1-3.3
	C703.3,29.9,705.4,18.9,706.9,13.6"/>
<path id="XMLID_3_" class="st0" d="M82.6,84.4c0-13.8-20-15.1-29.7-15.1c-11.4,0-23.7,2.3-33.8,6.2C10.9,78.6,0,84.3,0,94.6
	c0,13.4,21,18.2,39,22.8c13.6,3.4,24.6,6.2,24.6,11.7c0,7.2-18.8,6.5-23.1,6.5c-17.7,0-28.7-3.6-30.3-3.6c-3.4,0-5.3,9.1-1.8,10.1
	c10.2,3,20.4,4.3,30.2,4.3c23.8,0,37-5,37-17.5c0-11.8-14-17.4-32.7-22C29,103.4,12,99.8,12,94.5c0-4.7,6.5-7.6,11.4-9.5
	c8.5-3.4,19.1-5.1,28.7-5C55,80,71,79.9,71,85.2c0,1.3-1.1,2.7-3.5,4.1c-3.2,1.8,0.9,10.1,4.9,8.4C78.2,95.3,82.6,90.2,82.6,84.4
	 M622.1,133.3c-6.5-1.6-13.4-4.1-13.4-14.8c0-13.9,11.1-18.6,32.9-18.6c9.6,0,18.2,1.7,24.9,6.6c8,5.8,8.9,17.1,8.7,26.1
	c3.9-0.2,10.4,0,13.6,0c3.4,0,3.9,2.4,3.9,4.5c0,2.4-0.2,5.6-3.4,5.6c-4.8,0-14.5-0.2-15.6-0.1c-3.5,15.2-14.2,26.6-28.3,26.6
	c-8.8,0-17.1-5-17.1-14.5c0-13.4,17-21,34.9-21.7c0.3-4.7,0.1-10.1-1.7-14.3c-3.7-8.2-12.7-8.8-22.2-8.8c-16.6,0-19.4,2.6-19.4,9.1
	c0,9.4,16.3,6.5,16.3,13.6c0,6.4-14.1,10.4-24.8,10.4c-16.1,0-27.3-7.1-30.9-22.7c-5.1,13.7-13.2,22.5-21.9,22.5
	c-15.6,0-21.7-22.2-24.2-38.2c-0.4-2.7,0.6-4.3,7.2-4.7c2.3-0.1,4,0.3,4.2,2.1c1.5,11.9,6,30.8,13.4,30.8c7.8,0,15-19.9,18-31
	c1-3,11-2.5,11.2,1.8c0,24.6,10,33.1,33.4,29.9V133.3z M521.7,99.5c-14.1,0-21.9,11.4-27.5,22.8c-3.4,6.9-4.4,10.4-5.4,10.4
	c-2.9,0-1.1-29.9-12.7-29.9c-12.3,0-20.2,29.9-29.9,29.9c-3,0-4.3-3.2-4.3-12.1V80.9c0-2.5-1.1-3.9-6-3.9c-4.4,0-5.3,2.1-5.3,3.5
	v23.9c-3.8-2.9-14.5-4.5-23.5-4.5c-20.6,0-26.8,8.9-26.8,21.4c0,6.1,1.8,12.4,5.8,16c5.5,4.9,13.9,5.4,20.6,5.5
	c6.3,0,15.9-0.5,18.6-2.1c1.6-1,1.7-2.3,1.7-3.4c0-2.8-1.1-6.2-3.8-6c-1.7,0.1-7,1.3-17.2,1.3c-10.5,0-13.7-3.7-13.7-12.7
	c0-6.8,2.1-10,16.8-10c6.1,0,17.1,0.3,19.9,4.8c1.2,2,1.3,4.1,1.7,9.4c1.1,12.9,6.2,18.5,13.6,18.5c15.5,0,21.3-18.7,29.6-28.3
	c1.9,8.3,1.7,28.4,13.9,28.4c15,0,13.9-32.4,33.5-32.4c2.8,0,4.1,0.3,5.1,0.3c3.3,0,4.1-3,4.1-6.3
	C530.5,100.2,529.4,99.5,521.7,99.5 M645.7,159.3c8.4,0,15.5-8,16.5-16.4c-9.6,0.4-22.3,3.8-22.3,11.5
	C639.9,156.8,641.9,159.3,645.7,159.3 M326.6,102.9c-10,0-11.9,17.6-28.2,26.4c-6.1,3.3-14.4,4.5-25,4.5c-17,0-21-1.5-21-12.8
	c0-2.4,0.1-5,1.5-6.9c2.8-4,12.5-4.2,17.4-4.2c11.7,0,13.1,1.1,13.1,5c0,3.8-1.1,4.1-8.5,4.2h-4.3c-1.6,0-3.6-0.2-3.6,3.1
	c0,2.9-0.1,4.4,1.7,4.7c0.9,0.3,4,0.4,5.9,0.4c15.6,0,20.7-5.2,20.7-12.9c0-10-4.9-14.5-26-14.5c-11,0-26,1.6-28.8,13.8
	c-0.8,3.5-1,6.3-1,8.8c0,18.9,16.3,20.7,34.1,20.7c26.5,0,40.9-12.6,49.8-28.6c1.9,8.3,1.6,28.4,13.9,28.4c15,0,13.5-32.4,33.1-32.4
	c0.9,0,2.1,0.1,2.7,0.1c3.1,0,3.7-2.8,3.7-6.2c0-4.2-0.9-4.9-5.9-4.9c-14.1,0-21.5,11.4-27.1,22.8c-3.3,6.9-4.3,10.4-5.4,10.4
	C336.3,132.8,338.2,102.9,326.6,102.9 M85.4,104.8c2.5,16,8.4,38.2,24.1,38.2c8.7,0,15.9-7.5,21.8-20.2c2.2,11.6,7.9,20.2,17.6,20.2
	c14.8,0.1,17.9-23.5,31.6-30.1c6.3-3,12.6-2.8,19.3-2.8c17.2,0,20.1,2,20.1,11.1c0,3-0.1,7.3-2.8,9.4c-3,2.3-10.9,2.3-15.1,2.3
	c-4.1,0-14-0.8-15-5.6c-0.3-1.3-0.2-1.8-0.2-3.7c0-2.6-2.7-3.4-5.6-3.4c-4,0-5.5,1.9-5.5,4.1v36.3c0,1.5,0.7,3.6,5,3.6
	c5,0,6-1.7,6-4.2v-20.7c3.5,2.5,8.4,3.5,19.4,3.6c21,0.1,25.7-7.5,25.7-21.3c0-9.2-2.6-13.7-5.1-15.8c-4.4-3.7-9.2-5.7-27.5-5.7
	c-13.3,0-20.2,2.4-25.9,6c-13,8.1-17.6,27.3-24.3,27.3c-8.5,0-9.6-20.1-9.9-29.5c-0.2-4.3-10.2-4.8-11.1-1.8
	c-2.9,11-10.2,30.9-18,30.9c-7.5,0-11.9-18.9-13.4-30.8c-0.3-1.8-2-2.2-4.2-2.1C86,100.4,85.1,102.1,85.4,104.8"/>
<g id="XMLID_1_">
	<path id="XMLID_13_" class="st0" d="M340.5,211.7c0,10.5-8.6,18.8-19.5,18.8c-10.9,0-19.5-8.4-19.5-18.8c0-10.5,8.6-18.7,19.5-18.7
		C331.9,192.9,340.5,201.2,340.5,211.7z M305.8,211.7c0,8.2,6.9,14.7,15.2,14.7s15.1-6.5,15.1-14.7c0-8.2-6.8-14.7-15.1-14.7
		S305.8,203.5,305.8,211.7z"/>
	<path id="XMLID_16_" class="st0" d="M375,213v17.3h-4.2v-16.2c0-4.9-3-7.9-7.9-7.9c-5.5,0.1-8.9,3.7-9.4,9v15.1h-4.2v-28h4.2v6.2
		c2-4.3,5.7-6.3,10.9-6.3C371,202.1,375,206.2,375,213z"/>
	<path id="XMLID_18_" class="st0" d="M386.1,230.3v-39.5h4.2v39.5H386.1z"/>
	<path id="XMLID_20_" class="st0" d="M406.9,194.2c0,1.6-1.2,2.9-2.7,2.9s-2.7-1.2-2.7-2.9s1.2-2.9,2.7-2.9S406.9,192.6,406.9,194.2
		z M402.2,230.3v-28h4.1v28H402.2z"/>
	<path id="XMLID_23_" class="st0" d="M443.6,213v17.3h-4.1v-16.2c0-4.9-3-7.9-7.9-7.9c-5.5,0.1-8.9,3.7-9.4,9v15.1H418v-28h4.2v6.2
		c2-4.3,5.7-6.3,10.9-6.3C439.7,202.1,443.6,206.2,443.6,213z"/>
	<path id="XMLID_25_" class="st0" d="M478.6,217.9h-22.9c0.7,5.5,4.7,8.9,10.2,8.9c3.5,0,6.5-1.2,8.7-3.5l2.3,2.4
		c-2.7,3-6.6,4.7-11.3,4.7c-8.2,0-13.9-5.8-13.9-14.2s5.7-14.2,13.9-14.2C474.6,202.1,479.1,208.4,478.6,217.9z M474.9,214.5
		c-0.3-5.4-3.9-8.8-9.4-8.8c-5.3,0-9.2,3.5-9.8,8.8H474.9z"/>
	<path id="XMLID_28_" class="st0" d="M530.9,198c3.5,3.2,5.3,7.8,5.3,13.5s-1.7,10.4-5.2,13.7s-8.7,5.1-15.8,5.1h-12.7v-37.2h13.1
		C522.3,193.1,527.4,194.7,530.9,198z M524.8,220.1c2-1.9,3.1-4.7,3.1-8.4s-1-6.5-3.1-8.4c-2-2-5.2-3-9.4-3h-4.6V223h5.3
		C519.9,223,522.8,222,524.8,220.1z"/>
	<path id="XMLID_31_" class="st0" d="M572.9,216c0,4.1-1.4,7.6-4.3,10.5c-2.9,2.8-6.5,4.3-10.8,4.3c-4.3,0-8-1.4-10.8-4.3
		c-2.9-2.8-4.3-6.3-4.3-10.5s1.4-7.7,4.3-10.5c2.9-2.9,6.5-4.3,10.8-4.3c4.3,0,8,1.4,10.8,4.3C571.4,208.3,572.9,211.8,572.9,216z
		 M550.6,216c0,2.3,0.7,4.2,2,5.7s3,2.2,5.1,2.2c2.1,0,3.8-0.7,5.1-2.2c1.3-1.5,2-3.4,2-5.7s-0.7-4.3-2-5.7c-1.3-1.5-3-2.2-5.1-2.2
		c-2.1,0-3.8,0.7-5.1,2.2C551.3,211.7,550.6,213.6,550.6,216z"/>
	<path id="XMLID_34_" class="st0" d="M594.1,223.6c2.7,0,5.1-1.3,7.2-4l4.7,5.3c-3.7,3.8-7.7,5.7-12,5.7s-7.9-1.4-10.9-4.1
		c-3-2.7-4.4-6.3-4.4-10.6c0-4.4,1.5-7.9,4.5-10.7c3-2.7,6.6-4.1,10.7-4.1c2.1,0,4.1,0.4,6.3,1.3c2.1,0.9,4,2.1,5.6,3.8l-4.1,5.4
		c-0.9-1.1-2-2-3.4-2.6c-1.3-0.6-2.7-0.9-4-0.9c-2.1,0-3.9,0.7-5.4,2c-1.5,1.4-2.3,3.3-2.3,5.7s0.8,4.3,2.3,5.7
		C590.3,223,592.1,223.6,594.1,223.6z"/>
	<path id="XMLID_36_" class="st0" d="M622.4,207.4v12.8c0,1.1,0.3,2,0.9,2.6c0.6,0.6,1.2,0.9,2,0.9c1.5,0,2.7-0.7,3.8-2l3,5.6
		c-2.5,2.3-5.1,3.4-7.8,3.4c-2.7,0-5.1-0.9-7-2.7c-1.9-1.8-2.8-4.3-2.8-7.4v-13.2H611v-5.7h3.4v-8.6h8v8.6h6.9v5.7H622.4z"/>
	<path id="XMLID_38_" class="st0" d="M666.2,216c0,4.1-1.4,7.6-4.3,10.5c-2.9,2.8-6.5,4.3-10.8,4.3c-4.3,0-8-1.4-10.8-4.3
		c-2.9-2.8-4.3-6.3-4.3-10.5s1.4-7.7,4.3-10.5c2.9-2.9,6.5-4.3,10.8-4.3c4.3,0,8,1.4,10.8,4.3C664.8,208.3,666.2,211.8,666.2,216z
		 M644,216c0,2.3,0.7,4.2,2,5.7s3,2.2,5.1,2.2c2.1,0,3.8-0.7,5.1-2.2c1.3-1.5,2-3.4,2-5.7s-0.7-4.3-2-5.7c-1.3-1.5-3-2.2-5.1-2.2
		c-2.1,0-3.8,0.7-5.1,2.2C644.6,211.7,644,213.6,644,216z"/>
	<path id="XMLID_41_" class="st0" d="M688.8,208.7c-2.4,0-4.1,0.8-5.3,2.5c-1.2,1.7-1.8,3.9-1.8,6.7v12.4h-8v-28.6h8v3.8
		c1-1.2,2.3-2.2,3.9-3c1.5-0.8,3.1-1.2,4.7-1.3l0.1,7.5H688.8z"/>
</g>
</svg>
