<?xml version="1.0" encoding="utf-8"?>
<!-- Generator: Adobe Illustrator 19.1.0, SVG Export Plug-In . SVG Version: 6.00 Build 0)  -->
<svg version="1.1" id="Layer_1" xmlns="http://www.w3.org/2000/svg" xmlns:xlink="http://www.w3.org/1999/xlink" x="0px" y="0px"
	 viewBox="0 0 187.1 98.9" style="enable-background:new 0 0 187.1 98.9;" xml:space="preserve">
<style type="text/css">
	.st0{fill-rule:evenodd;clip-rule:evenodd;fill:#D2232A;}
</style>
<g>
	<path class="st0" d="M73.2,69.9c1.7-1.4,0.8-4.6-2.1-3.1c-2.5,1.4-3.3,3.4-5.8,3.8c-5.1,0.9-12.5-3.2-12.5-3.2s6.5-5.6,10.3-9.9
		C68.6,51.5,74,42.7,74,42.7s8.6-2.8,20.4-9.6C106.3,26.3,115,17.3,115.6,9C116.2,0.6,109-2.3,99,2C88.8,6.3,78.3,17.5,73.5,24.6
		c-4.7,7-10,15.2-10,15.2s-8.3,2.5-22.9-1.6c-10.5-2.9-11.3-15.9-1.3-23.6c5.9-4.5,16.5-7.7,28.1-6.8C74,8.3,79.2,8.1,81,8.5
		c1.9,0.3,4.1-1.8,0.4-3.5C77.7,3.2,63.1,1.5,52,3.3C41,5.1,30.5,7.4,24.7,15.4c-5.8,7.9-4,20.6,6.6,25.6c15.1,7,28.2,4,28.2,4
		s-3.9,6-6.2,9.4c-3.2,4.6-8.6,9.8-8.6,9.8s-11.2-5.1-18.3-6.4c-7-1.3-17.6-1-22.2,2.1c-4.8,3.3-6.5,9.2-0.2,13.8
		c6.3,4.6,16.5,5,21.7,4.7c10.1-0.5,18.2-5.6,18.2-5.6s9.1,3.6,11.9,4.6c2.8,1,7.7,1.3,10.5-1C69.1,74.1,72.1,70.9,73.2,69.9
		L73.2,69.9z M78.1,36.6c0,0,12.1-19.8,15.8-23.7c3.9-4.1,10.2-9.9,14.6-7.4c2.6,1.5,0.1,7.1-3.9,12.1c-4.1,5.1-8.6,9.6-15.3,13.8
		C84,34.8,78.1,36.6,78.1,36.6L78.1,36.6z M36.3,69.8c0,0-10.4-4.1-14.2-5.1c-3.8-0.9-12.5-1.9-13.4,2.4c-0.9,4.2,5.4,5.9,11,6.2
		C33,74.1,36.3,69.8,36.3,69.8L36.3,69.8z"/>
	<path class="st0" d="M102.3,35.8c2.5,2,2,4.5,0.9,6.4c-1.3,2.3-4,2.8-6.1,2.1c-1.8-0.6-3.3-2.9-2.4-5.8
		C95.6,35.5,99.9,33.8,102.3,35.8L102.3,35.8z"/>
	<path class="st0" d="M86.6,50.1c-1.1,1.1-2,2-4.1,4.5c-2.6,3-8.8,12.3-6.8,18.2c2.7,7.6,12.6,4.1,16.1,2.7c3.5-1.4,5.8-3.7,5.8-3.7
		s3.1,5.5,8.9,5.8c7.8,0.4,16.3-5.6,16.3-5.6s1.9,4.7,8.9,5.2c8.7,0.6,13.4-6,13.4-6s2.1,6,6.6,6.6c4.5,0.6,8.8-1.7,8.8-1.7
		S145.9,95.7,145,96.7c-0.8,1-1.3,2,0,2c1.2,0,4.9,0.2,6,0.2c1,0,1.1,0,2.7-2c1.9-2.3,31.7-43.7,32.8-45.2c1-1.4,0.9-2.7-0.8-2.7
		c-1.7,0-3.6,0-4.8,0c-1.2,0-1.6,0.6-2.5,1.8c-1.1,1.3-13.8,17.7-17.3,20.2c-3.2,2.2-10.2,1.7-6-3.5c4.5-5.6,10.9-14.2,12-15.7
		c1-1.4,1.4-2.7-0.8-2.7c-2.3,0-3.8,0-4.8,0c-1,0-1.6,0.7-2.5,1.8c-0.8,1-11.3,13.3-15.8,17.2c-4.5,3.9-6.4,3.6-8.7,3.7
		c-4.4,0.1-5-4.3-5-4.3s10.3-7,14-10.7c3.7-3.7,12.6-12.6,15.3-18.2c2.7-5.6,1.7-12-9.5-7c-11.1,5-16.9,13.8-21.3,19.4
		c-4.3,5.6-5.6,16.3-5.6,16.3s-5.4,3.6-10.5,4.3c-8.9,1.2-8-4.7-8-4.7s9.3-6.2,13.4-10.3c5-5,10.5-11.6,14.2-17.7
		c7.2-12-1.9-13-10.9-7.2c-9.1,5.8-16.2,14.6-19.6,19.8c-5.6,8.5-4.3,16.1-4.3,16.1s-6,5-9.7,4.3c-3.7-0.6-3.7-4.1-0.3-9.7
		c3.8-6.3,7.9-10.3,8.8-11.1c0.8-0.8,0.6-1.9-0.2-1.9c-0.8,0-4.8,0-6.1,0C88,49.2,87.5,49.1,86.6,50.1L86.6,50.1z M105.5,61.8
		c0,0,2.8-8.9,9.9-16.6c5.1-5.6,11.2-12.6,13.2-11.5c2.8,1.6-6.6,12.5-9.4,15.9C112.9,57.4,105.5,61.8,105.5,61.8L105.5,61.8z
		 M130.9,62c0,0,3.5-8.9,10.5-16.6c5.1-5.6,11.8-12.3,13.8-11.2c2.8,1.6-7.2,12.1-10,15.6C138.9,57.6,130.9,62,130.9,62L130.9,62z"
		/>
</g>
</svg>
