<?xml version="1.0" encoding="utf-8"?>
<!-- Generator: Adobe Illustrator 19.1.0, SVG Export Plug-In . SVG Version: 6.00 Build 0)  -->
<svg version="1.1" xmlns="http://www.w3.org/2000/svg" xmlns:xlink="http://www.w3.org/1999/xlink" x="0px" y="0px"
	 viewBox="0 0 202.7 174.6" style="enable-background:new 0 0 202.7 174.6;" xml:space="preserve">
<style type="text/css">
	.st0{fill:url(#SVGID_1_);}
</style>
<radialGradient id="SVGID_1_" cx="141.4166" cy="48.3876" r="136.7028" gradientUnits="userSpaceOnUse">
	<stop  offset="0" style="stop-color:#FAA61A"/>
	<stop  offset="3.993112e-02" style="stop-color:#F9A01B"/>
	<stop  offset="0.2542" style="stop-color:#F58220"/>
	<stop  offset="0.4626" style="stop-color:#F26922"/>
	<stop  offset="0.6608" style="stop-color:#F05523"/>
	<stop  offset="0.8446" style="stop-color:#EF4623"/>
	<stop  offset="1" style="stop-color:#EF4123"/>
</radialGradient>
<path class="st0" d="M202.7,48.1c0-29.2-21.2-42.2-47.8-46.4C145.3,0.2,136.6,0,127,0C86.8,0,24.7,7,4.7,48.3
	C1.7,54.2,0,62.6,0,69.6C0,80.3,1.6,89.9,6.1,100c7.7,17.1,21.5,26.9,40.4,26.9c5.2,0,10-0.5,12.9-1.6c3-1.2,5.9-3.5,5.9-7.7
	c0-2.1-1.6-4.4-3.8-5.2c-2.4-0.9-4.5-1.1-11-1.4c-6.5-0.4-8.8-0.5-13.3-0.9c-7.2-0.7-10.8-5.4-10.8-10c0-4,2.8-7.5,8-10
	c-7-2.6-11.8-9.3-11.8-16.7c0-10.9,8.5-19.3,22.2-19.3c3,0,6.5,0.7,9.4,1.6c2.5,0.7,5.1,1.2,7.9,1.2c3.3,0,7.2-0.2,10.3-1.1v7
	c-1.7-0.4-7.3-0.7-10.3-0.7c2.8,3.2,4.4,7.5,4.4,11.7c0,9.8-7.7,18-21.3,18c-1.2,0-2.4,0-3.9-0.2c-1.4,0.3-2.7,0.9-3.7,1.7
	c-1.5,1.2-2.2,2.8-2.2,4.1c0,2.3,1.2,4,6.8,4.4l12.1,0.7c11.7,0.7,18,5.4,17.8,13.8c-0.3,9.6-8,16.6-26.6,16.6
	c-4.9,0-11.4-0.9-17.1-2.6c-4.2-1.2-8.2-3.5-11.7-6.1c15.7,26.9,43.7,50.2,76.1,50.2c15.7,0,29.2-5.6,41.8-14.9
	C164.6,137.3,202.7,87.1,202.7,48.1z M56.8,74.1c0-7.9-4.5-14.1-12.9-14.1c-7.3,0-11.8,4.9-11.8,12.1c0,8,4.7,14.4,13.3,14.4
	C53,86.4,56.8,81.3,56.8,74.1z M175.1,107.6c-2.6,1.9-6.5,3-10.7,3c-5.4,0-10-3-15.6-9.6c-8.9-10.7-16.1-19.2-16.1-19.2v14
	c0,9.8,0.5,11.4,1.4,13.6c-3.3,0-10,0-12.9,0c1.1-2.8,1.6-3.8,1.6-13.6V47.2c0-7.9-0.5-11.4-2.1-13.5l12.1-3.2v46.9l15.9-14.9
	c0,0,3.1-2.8,5.9-6.5h13.8c-0.7,0.2-3.1,0.7-11.9,8.9l-14.9,14c0,0,8.9,10.5,17.3,19.8c6.5,7,11.4,9.1,14.3,9.1
	C173.9,107.9,174.6,107.7,175.1,107.6z M114.9,95.5c0,11.7-11.7,15.7-21.5,15.7c-6.1,0-11.5-1.2-17.1-3.5v-8
	c5.8,3.1,12.9,5.1,17.5,5.1c4.9,0,11-1.2,11-7c0-5.8-6.1-8.6-12.8-11.7c-7.3-3.5-15.2-7.3-15.2-16.3c0-10.8,10.5-15.6,19.9-15.6
	c5.1,0,10.1,1.2,14.5,3.7v7.9c-4.2-3.3-9.3-5.2-14.7-5.2c-5.2,0-10.3,2.1-10.3,6.8c0,5.6,6.6,8.7,13.6,12.2
	C107.2,83.3,114.9,87.4,114.9,95.5z"/>
</svg>
