<?xml version="1.0" encoding="utf-8"?>
<!-- Generator: Adobe Illustrator 19.1.0, SVG Export Plug-In . SVG Version: 6.00 Build 0)  -->
<svg version="1.1" id="Camada_1" xmlns="http://www.w3.org/2000/svg" xmlns:xlink="http://www.w3.org/1999/xlink" x="0px" y="0px"
	 viewBox="0 0 843.6 437.9" style="enable-background:new 0 0 843.6 437.9;" xml:space="preserve">
<style type="text/css">
	.st0{fill:#005CB9;}
</style>
<path class="st0" d="M644.5,417.2H199.8L29.2,220.3L199.8,22.1h444.6l170,198.9L644.5,417.2z M655.2,0H189.1L0,219.6l189.1,218.2
	h466l188.5-217.5L655.2,0z M570.7,168.1c12.4,9.2,15.6,18,15.6,42.7v83.8h-27.4l0-82.7c0-7.4,0.2-14.1-3.2-19.1
	c-3.2-4.8-9.5-6.7-14-6.5c-10.2,0.4-15.7,7.7-15.7,14.2v94.1h-27.4V114.1H526v55.3c5.8-4.6,14.2-7.5,23-7.6
	C557.1,161.7,565.4,164.1,570.7,168.1 M347.4,254.1c0.1-1.5,0.7-6.5,0.7-24.2c0-17.7-0.7-25-0.7-25.2c-0.1-9.9-5.3-19.8-16.5-19.8
	c-11.2,0-16.4,9.9-16.5,19.9c0,0.1-0.7,7.4-0.7,25.1c0,17.6,0.7,23.6,0.7,23.7c0.5,9.6,5.1,20.6,16.5,20.6
	C342.3,274.3,346.5,263.9,347.4,254.1 M330.9,161.9c18,0,39.8,8.3,43.7,46.8c0.4,3.6,0.8,16.5,0.8,21.3c0,10.5-0.6,19.2-0.7,21.3
	c-1.8,28.2-18.1,46.1-43.8,46.1c-25.7,0-42-17.6-43.8-46.1c-0.1-2.2-0.8-10.8-0.7-21.3c0.1-14.4,0.5-18.9,0.7-21.3
	C289.9,178.1,305.4,161.9,330.9,161.9 M666.1,213.8c0-2.7-0.2-5.2-0.5-8.9c-0.5-7.1-3.5-20-16.7-19.9c-11.1,0.1-15.9,9-16.7,19.8
	c-0.1,1.7-0.1,3-0.3,9H666.1z M692.7,221.9c0.2,5.5,0.1,14.5,0.1,14.5h-61c0,11.1,0.5,14.3,0.7,17.3c0.8,10.2,5.1,20.6,16.4,20.6
	c13.3,0,15.8-13.6,16.6-20c0.3-2.5,0.3-4.5,0.3-4.5H692c-1.7,29.9-18.3,47.5-43.1,47.5c-24.8,0-41.4-18.1-43.1-46.1
	c-0.1-2-0.7-10.8-0.7-21.3c0-14.7,0.5-18.6,0.7-21.3c3-30.8,18.4-46.8,43.1-46.8c12.8,0,23.7,5,31.3,14.4c6.6,8.2,11,20.8,11.8,32.4
	C692.5,216.2,692.6,219.8,692.7,221.9 M240.3,167.8c0.1-0.9,0.1-1.8,0.1-4.2c0-2.1-0.1-3.2-0.2-4.2c-0.3-13.3-8-20.8-22.1-20.8
	h-12.9v50.9h14.3C236.1,189.5,239.6,175.7,240.3,167.8 M267.3,239.1c0,0,2.8,44.3,2.8,44.3c0.2,6.3,1.4,11.2,1.4,11.2h-27
	c0,0-1.1-5.1-1.4-11l-2.8-41.9c-1.5-21.4-11.3-28.9-20-28.9h-15l0,81.8h-27V115.5l41.8,0c25.6,0.3,47.3,12.6,47.5,47.6
	c0.1,23-9.5,34-16.9,38.5C261,207.6,266.1,219.2,267.3,239.1 M437.7,185c11.5-0.1,16.4,10,16.5,19.8c0,0.1,0.3,2.5,0.5,7.7h27
	c-0.1-1.8-0.2-3.3-0.2-4.2c-3.1-37.4-25.9-46.4-43.8-46.4c-25.4,0-40.9,16.2-43.7,46.8c-0.2,2.4-0.6,6.9-0.7,21.3
	c-0.1,10.5,0.6,19.1,0.7,21.3c1.8,28.5,18.1,46,43.8,46.1c26.6,0.1,41.3-16.1,43.8-46.1c0.1-1.1,0.2-1.9,0.2-2.6h-27.1
	c-0.1,2-0.3,3.8-0.4,5c-0.8,10-4.3,20.6-16.5,20.6c-11.4,0-15.9-11.5-16.7-20c-0.5-5.2-0.4-9.1-0.5-24.3
	c-0.1-17.7,0.4-22.2,0.7-25.1C422.1,193.7,426.4,185,437.7,185"/>
</svg>
