<?xml version="1.0" encoding="utf-8"?>
<!-- Generator: Adobe Illustrator 19.1.0, SVG Export Plug-In . SVG Version: 6.00 Build 0)  -->
<svg version="1.1" id="Capa_1" xmlns="http://www.w3.org/2000/svg" xmlns:xlink="http://www.w3.org/1999/xlink" x="0px" y="0px"
	 viewBox="0 0 1228.7 733.7" style="enable-background:new 0 0 1228.7 733.7;" xml:space="preserve">
<style type="text/css">
	.st0{fill:#FFFFFF;}
	.st1{fill:url(#SVGID_1_);}
</style>
<path class="st0" d="M282.6,710.7c-5.2,0-124.3-25.2-207.9-109.9c-139.1-140.9-57.5-304.3,67.6-404.2
	C472.9-67.4,883.8,0.5,993.2,40.5c398.5,145.8,205.3,437.4,43.9,537.3c-313.4,194-570.3,156.5-687.1,145.8L282.6,710.7z"/>
<radialGradient id="SVGID_1_" cx="375.6642" cy="271.9575" r="787.784" gradientUnits="userSpaceOnUse">
	<stop  offset="0" style="stop-color:#2AA4D9;stop-opacity:0.85"/>
	<stop  offset="1" style="stop-color:#1375B7"/>
</radialGradient>
<path class="st1" d="M1037.2,577.8c161.4-99.9,354.5-391.5-43.9-537.3C883.8,0.5,472.9-67.4,142.3,196.6
	C17.3,296.5-64.4,459.9,74.7,600.8c83.6,84.6,202.7,109.9,207.9,109.9c5.2,0,108.1-393.9,108.1-393.9S412,225.6,436.4,181
	c24.4-44.5,73.8-62.7,89.4-64.3c27-2.7,52.6-0.4,68.1,4.9c26.5,9.1,38,28.5,40,36.5c9.6,39.1-18.7,55.8-37.4,56.8
	c-20.8,1-33.5-10.6-36.4-18.4c-3.1-8.3-5.1-24.9,4.5-34.6c6.9-6.9,3.8-20.9-1.4-24.5c0,0-18.6-6.1-39.7,8
	c-13.9,9.3-32.4,52.1-36.1,64.5c-2.1,7-20.3,81.4-20.3,81.4l132,0.5l-55.6,203.2H478l43.7-168.9h-66.5l-105,397.4
	C466.9,734.3,723.7,771.8,1037.2,577.8z"/>
<path class="st0" d="M629.7,291.4l-9.1,35l94.3-0.3c0,0-70.7,71.5-76.9,75.7c-6.2,4.1-51.2,52.6-52.7,94.5l172.2,1.3l9.8-42.7
	l-105.4,0.5c32.2-45.6,62.9-66.9,88.9-94.1c19.1-20,32.5-27.7,47.6-70H629.7z"/>
<path class="st0" d="M1029.9,290.9l-53.8,206h67c0,0,27.5-111.7,40.8-132.4c10.3-16.1,20.1-29,26-32.1c33.9-17.9,31,10.2,31,10.2
	c1.7,5.4,10.6,18.1,27.9,19.2c27,1.6,36.7-39.2,24.6-55.5c-15.5-20.8-37.6-19-53.4-15.4c-23.5,5.4-54.2,41.1-54.2,41.1l10.2-40.4
	L1029.9,290.9z"/>
<path class="st0" d="M370.4,251.8c-15.1-49.2-93.5-53.9-93.5-53.9l-103.2-1.3L91.4,495.1h68.6l24.9-97.4c0,0,35.9,1,62.4-2.6
	c67.2-9.2,92.6-37,92.6-37C350.7,345.9,385.5,301,370.4,251.8z M286.1,327.2c0,0-13.9,24.2-45,30.4c-5.2,1-11.4,3.6-44.3,3.1
	l36.1-133.4h27.8c20.5,2.4,38.7,9.9,44.3,30.7C309.2,274.9,291.9,319.6,286.1,327.2z"/>
<path class="st0" d="M915.5,457c-20.7,12.8-45.7,4.7-45.7,4.7c-19.3-11.4-22.8-20.9-24.4-25.9c-3.2-10.1,0.5-22.5,0.5-22.5
	c29.1,0.8,44.1-2.3,62.6-6.5c33.8-7.8,78.9-29.3,78.7-77.5c0-8.5-17.1-64.3-112.3-33.2c-10.7,3.5-66.8,22.5-90.4,96
	c-12.2,38.2-1.4,107.2,71.8,111.3c73.9,4.2,113.5-44.8,113.5-44.8l-20.3-26.7C949.6,431.9,933.8,445.8,915.5,457z M902.7,322.4
	c17.5-5.7,34.3-2.2,31.9,13.1c-2.4,14.9-11.9,26.4-23.6,34.6c-30.3,21.1-61,17.4-61,17.4C851.1,362.4,870.9,332.6,902.7,322.4z"/>
</svg>
