<svg xmlns="http://www.w3.org/2000/svg" xmlns:xlink="http://www.w3.org/1999/xlink" width="210" height="210" viewBox="0 0 210 210">
    <defs>
        <linearGradient id="c" x1="50%" x2="50%" y1="0%" y2="100%">
            <stop offset="0%" stop-color="#434343"/>
            <stop offset="100%"/>
        </linearGradient>
        <rect id="b" width="190" height="190" rx="28"/>
        <filter id="a" width="115.8%" height="115.8%" x="-7.9%" y="-7.9%" filterUnits="objectBoundingBox">
            <feOffset in="SourceAlpha" result="shadowOffsetOuter1"/>
            <feGaussianBlur in="shadowOffsetOuter1" result="shadowBlurOuter1" stdDeviation="5"/>
            <feColorMatrix in="shadowBlurOuter1" values="0 0 0 0 0 0 0 0 0 0 0 0 0 0 0 0 0 0 0.15 0"/>
        </filter>
    </defs>
    <g fill="none" fill-rule="evenodd">
        <g transform="translate(10 10)">
            <use fill="#000" filter="url(#a)" xlink:href="#b"/>
            <use fill="url(#c)" xlink:href="#b"/>
        </g>
        <g fill="#FFFFFE">
            <path d="M42.947 151.99c-1.334 0-2.012-.035-3.254-.131-.515-.03-.967-.15-1.365-.255-.12-.033-.24-.065-.362-.094-.708-.183-1.168-.453-1.614-.715-.14-.082-.282-.165-.437-.249a.788.788 0 0 1-.38-.467.817.817 0 0 1 .052-.608l.232-.46a.78.78 0 0 1 .453-.39.74.74 0 0 1 .588.055c.185.1.348.196.5.285.402.235.668.391 1.084.498.127.03.257.065.383.098.36.096.672.178.998.197 1.22.094 1.838.124 3.122.124h.217c1.242 0 2.071-.028 2.467-.085.469-.058 1.265-.498 1.483-.765a1.53 1.53 0 0 0 .353-.918.71.71 0 0 0-.041-.26c-.087-.234-.7-.691-1.771-1.005-1.566-.51-3.208-.924-4.796-1.323l-.916-.232c-.18-.047-.371-.092-.574-.14-1.476-.35-3.708-.878-4.573-2.87a3.386 3.386 0 0 1-.28-1.306c.044-1.915 1.703-2.876 2.802-3.511.192-.112.373-.215.531-.317 1.234-.742 2.44-1.117 4.054-1.27.244-.02.52-.049.817-.08.68-.07 1.451-.15 2.07-.15.06 0 .116 0 .171.002l.182.005c.951.024 2.03.051 2.972.34l.047.015.061.024c.872.329 2.494.943 2.635 2.539l.002.084c-.016 1.12-.711 2.084-1.22 2.788l-.138.193a.765.765 0 0 1-.621.326.756.756 0 0 1-.463-.16l-.4-.31a.816.816 0 0 1-.15-1.121c.602-.81.92-1.365.95-1.652-.152-.18-.688-.521-1.292-.708-.668-.205-1.659-.23-2.532-.252l-.09-.002-.113-.001c-.506 0-1.222.073-1.854.138-.314.033-.61.064-.863.084-1.317.127-2.212.402-3.18.98l-.379.222c-.787.458-1.977 1.15-1.957 1.767 0 .162.035.312.107.485.407 1.02 2.133 1.425 3.393 1.721l.364.086.896.227c1.626.408 3.306.83 4.926 1.36.796.257 2.46.792 3.06 2.197.139.346.205.704.205 1.083a3.627 3.627 0 0 1-.853 2.306c-.612.704-1.761 1.32-2.739 1.47-.758.106-2.089.106-2.884.106l-.086.001M71.686 154.032h-.504c-.428 0-.776-.322-.776-.718v-.717c0-2.1.009-4.15.131-6.11.024-.377.357-.673.764-.678l.502-.006h.012c.415 0 .757.303.774.688.035.283.695 1.1.996 1.226l.042.02a3.307 3.307 0 0 0 1.513.295c.35-.014.726-.043 1.106-.071.413-.032.83-.064 1.226-.08.52-.008 1.228-.04 1.6-.216.173-.084.343-.166.372-.706.003-.078.006-.176.006-.28 0-.554-.058-1.37-.116-1.935-.045-.358-.045-.358-.853-.682l-.118-.047c-.686-.278-1.438-.335-2.356-.335-.188 0-.377.003-.569.005-.2.002-.404.005-.61.005-.567 0-2.104.14-2.715.226-.637.113-1.039.44-1.688 1.13l-.17.17c-.342.34-.59.585-.876.94-.092.113-.177.227-.264.343-.18.242-.366.492-.612.744-.162.187-.318.407-.485.638-.438.611-.934 1.303-1.772 1.781-.488.266-.976.396-1.466.396-2.156-.053-3.229-2.257-3.641-3.2a9.663 9.663 0 0 1-1.87 1.978c-.546.42-1.537 1.183-2.753 1.195-.078 0-.148-.003-.225-.01-1.676-.178-2.605-1.702-3.002-2.354-1.048-1.76-1.217-3.301-1.396-4.933l-.007-.066c-.044-.395.266-.748.692-.788l.502-.048.08-.004c.177 0 .35.057.49.162.159.12.26.295.28.484l.007.057c.173 1.562.309 2.796 1.149 4.21.536.925 1.087 1.364 1.372 1.382l.05.003c.193 0 .612-.096 1.421-.735 1.618-1.302 2.526-2.97 2.552-4.698.005-.374.318-.682.721-.707l.502-.033.054-.001c.381 0 .71.258.768.612.076.471.106.952.136 1.416.048.757.094 1.47.323 2.025.513 1.289 1.32 2.15 1.754 2.15a.91.91 0 0 0 .45-.126c.408-.226.732-.672 1.108-1.19.193-.265.393-.54.623-.81l.035-.038c.16-.163.3-.35.462-.568.1-.133.203-.27.316-.411.354-.437.658-.738 1.01-1.087l.154-.154c.69-.737 1.496-1.495 2.875-1.733.659-.091 2.289-.253 3.056-.254.192 0 .385-.003.578-.005.2-.002.4-.005.601-.005 1.018 0 2.106.061 3.172.492.807.292 2.065.75 2.203 2.307.059.583.123 1.45.123 2.106 0 .131-.002.256-.008.367-.029 1.058-.58 1.91-1.511 2.326-.757.348-1.623.395-2.445.414-.342.014-.726.043-1.114.072-.404.03-.81.061-1.196.077a6.104 6.104 0 0 1-.226.005c-.822-.001-1.649-.184-2.33-.515a3.153 3.153 0 0 1-.19-.103 165.447 165.447 0 0 0-.024 3.276v.716c0 .396-.347.718-.775.718M88.588 150.968c-.859 0-1.553-.048-2.12-.147-.87-.18-2.37-.845-3.05-1.774-.597-.784-.882-2.068-.89-2.925-.03-2.376 1.446-4.065 3.671-4.202 1.235-.07 2.288-.101 3.415-.101l.24-.002c.104-.002.215-.004.328-.004.654.005 1.339.042 1.954.412.891.556 1.398 1.593 1.397 2.851.014 1.09-.626 2.01-1.672 2.385-.716.272-1.54.313-2.324.316-.158 0-.308-.001-.45-.003l-.34-.003c-.417 0-.756-.355-.756-.791v-.514c0-.437.339-.791.757-.791l.368.003c.134.001.274.003.419.003h.038c.275 0 1.113 0 1.609-.193.34-.14.341-.207.345-.426 0-.226-.04-.806-.4-1.026-.022-.013-.21-.127-.899-.127h-.042c-.103 0-.2.002-.295.003l-.277.003c-1.097 0-2.084.03-3.3.098-1.208.098-1.763.75-1.782 2.113-.005.483.236 1.347.453 1.617l.041.056c.193.291 1.268.87 1.768.953.445.079 1.064.12 1.794.12 1.162 0 2.283-.101 2.71-.144 1.356-.14 2.151-.463 3.403-1.383.65-.452 1.24-1.144 1.81-1.812.235-.272.422-.575.62-.896.318-.514.678-1.097 1.245-1.596.256-.227.645-.57 1.223-.581.52.005.892.264 1.161.489.595.475.665 1.109.706 1.487.009.074.014.145.03.21.065.317.08.726.096 1.087.006.16.01.298.02.377l.003.043c.032.456.11 1.044.182 1.368.124.518.219.844.386 1.184.187-.13.424-.364.488-.497.25-.515.431-.966.609-1.4.35-.865.682-1.68 1.327-2.533.554-.717 1.164-1.46 2.04-2.059.479-.303 1.021-.44 1.728-.442.417 0 .815.05 1.079.088a.754.754 0 0 1 .5.306.818.818 0 0 1 .146.587l-.067.509a.77.77 0 0 1-.749.682.776.776 0 0 1-.104-.007 5.663 5.663 0 0 0-.802-.069c-.355 0-.575.063-.657.116-.608.414-1.099 1.017-1.549 1.599-.46.6-.714 1.226-1.037 2.018-.183.448-.39.956-.661 1.52-.436.832-1.366 1.722-2.408 1.766h-.047c-.56 0-1.082-.306-1.398-.82-.44-.748-.61-1.374-.774-2.058a12.997 12.997 0 0 1-.23-1.694 9.509 9.509 0 0 1-.032-.55 8.705 8.705 0 0 0-.041-.643 5.682 5.682 0 0 1-.05-.31c-.236.254-.432.567-.65.918-.227.364-.483.777-.819 1.174l-.067.08c-.602.703-1.283 1.501-2.123 2.087-1.483 1.1-2.666 1.576-4.345 1.742-.574.058-1.715.153-2.902.153M124.918 150.968c-1.184 0-2.128-.66-2.524-1.765-.318-.838-.32-1.802-.323-2.506 0-.54-.002-1.081-.006-1.624-.423-.052-.839-.192-1.185-.309-.167-.056-.354-.12-.438-.134l-.046-.01c-1.079-.256-2.278-.277-3.513-.277h-.466c-.66 0-1.269.174-1.533.432a2.702 2.702 0 0 0-.734 1.705c-.003.072-.003.124-.003.178.022 1.994 1.078 2.116 1.425 2.157.143.017.31.023.505.023.283 0 .565-.015.845-.03.298-.016.594-.03.876-.032.306 0 .65-.013 1.004-.025.387-.015.786-.03 1.16-.03.155 0 .306.003.45.008a.762.762 0 0 1 .722.796l-.02.498a.775.775 0 0 1-.242.534.748.748 0 0 1-.51.202h-.033a7.453 7.453 0 0 0-.366-.008c-.342 0-.71.013-1.076.027-.378.015-.75.029-1.089.029-.246 0-.502.013-.769.027-.31.017-.632.034-.95.035-.267 0-.505-.012-.726-.037-1.97-.213-3.225-1.855-3.202-4.183a4.69 4.69 0 0 1 1.336-3.324c.878-.833 2.075-1.007 2.927-1.011h.191l.196-.001c1.184 0 2.656.002 4.037.328.207.043.452.123.712.21.147.048.337.111.5.156-.004-.589-.007-1.179-.007-1.77 0-.978.01-1.882.03-2.767a.76.76 0 0 1 .7-.746l.486-.034.053-.002c.365 0 .682.268.743.64.079.486.117 1.03.117 1.71 0 .37-.011.742-.022 1.106-.009.338-.018.669-.018.988l.003.215c.002.109.005.23.005.353a4.513 4.513 0 0 1-.088.943l.002.357c.007.901.014 1.8.014 2.696-.002.635.02 1.342.19 1.785.131.32.228.448.707.456.353 0 .73-.388 1.166-.837l.222-.227c.543-.54.699-.789 1.073-1.39l.17-.271c.09-.143.163-.272.235-.4.143-.255.306-.545.573-.892.22-.284.564-.652.867-.977.136-.145.261-.28.358-.388.432-.47.873-.698 1.355-.703.352.005.982.136 1.424.958.175.322.309.72.41 1.211.127.65.192 1.222.26 1.826.072.628.145 1.275.294 2.06a.64.64 0 0 0 .294-.227c.133-.198.308-.527.461-.817.078-.145.151-.285.219-.406.112-.201.18-.345.246-.488.09-.194.184-.395.36-.696.125-.213.232-.43.347-.662.33-.663.704-1.414 1.524-2.072.076-.06.154-.135.237-.213.256-.238.571-.533.98-.717.56-.285 1.25-.29 1.709-.294h.13c.265 0 .46.013.65.026.15.01.298.02.481.02.417 0 .764.344.764.767v.498c0 .203-.08.398-.221.542a.746.746 0 0 1-.533.224c-.254 0-.45-.014-.64-.028-.15-.01-.298-.02-.48-.02l-.116-.002c-.452 0-.773.049-.857.083l-.077.036c-.088.039-.303.236-.446.367-.11.101-.223.203-.333.295-.476.378-.69.806-.988 1.4-.123.246-.254.507-.41.781a5.15 5.15 0 0 0-.275.527c-.08.173-.166.357-.314.623-.06.108-.125.23-.194.361-.176.332-.375.707-.573 1.005-.471.696-1.255 1.13-2.046 1.135-.933 0-1.672-.626-1.83-1.522-.183-.929-.27-1.694-.346-2.369-.065-.56-.124-1.09-.232-1.636a5.768 5.768 0 0 0-.045-.195l-.11.12c-.274.293-.583.626-.734.82-.171.22-.273.402-.401.63-.086.154-.18.316-.297.505l-.148.237c-.407.653-.676 1.085-1.377 1.778-.09.088-.177.178-.267.27-.555.574-1.316 1.361-2.524 1.374h-.042M165.245 152.19v.002c-.014.076-.02.14-.02.194 0 .096.001.135.153.305.362.381.617.469 1.423.476.172 0 .368-.006.58-.015.607-.027 1.15-.363 1.71-1.058.524-.653.868-1.308 1.072-2.05-.794.007-1.596.049-2.221.283l-.167.058c-.732.258-1.262.444-1.755.832-.21.164-.686.765-.775.973zm1.548 2.864h-.06c-.877 0-2.002-.132-2.933-1.155-.42-.45-.636-.963-.631-1.52 0-.153.016-.32.05-.503.218-.993 1.38-2.019 1.43-2.063l.03-.024c.768-.606 1.526-.872 2.328-1.153l.18-.063c1.066-.396 2.243-.413 3.21-.415l.002-.238c0-.27-.007-.544-.022-.826a14.34 14.34 0 0 1-.013-.568c-.005-.444-.01-.902-.106-1.191-.177-.553-.57-.798-1.363-1.193-.448-.224-1.059-.264-1.698-.288-.58-.015-1.173-.029-1.764-.029-.644 0-1.205.018-1.713.056-.123.009-.248.016-.372.023-.539.031-1.15.067-1.435.256-.433.258-.588.521-.666 1.102-.002.026-.002.065-.002.105-.015 1.17 1.889 1.6 2.472 1.705l.393.069c.262.046.48.213.577.441a.662.662 0 0 1-.101.683l-.24.296c-1.095 1.34-2.775 1.494-3.944 1.494-.335 0-.66-.014-.962-.027-.25-.01-.484-.02-.693-.02h-.107c-2.096 0-3.82-.993-4.987-2.874a4.007 4.007 0 0 1-.363-.74c-.16.244-.323.475-.474.691l-.075.107c-.342.47-.712.937-1.107 1.393-.64.749-1.419 1.444-2.75 1.444-.102 0-.187-.001-.283-.008-1.695-.16-2.64-1.567-3.148-2.323-.502-.707-.792-1.393-.986-2.352-.07-.267-.116-.568-.166-.885-.06-.374-.168-1.069-.302-1.23a.671.671 0 0 1 .114-1.017l.396-.287a.822.822 0 0 1 .48-.153l.1.006a.795.795 0 0 1 .52.278c.506.617.63 1.476.73 2.165.039.267.075.519.124.68l.015.06c.156.766.33 1.186.712 1.727.76 1.166 1.269 1.43 1.566 1.45.029.002.07.002.11.002.406-.003.599-.094 1.165-.736.351-.405.686-.826.992-1.247l.058-.083c.268-.384.573-.819.804-1.235.455-.82.778-1.45.775-2.105 0-.357.288-.66.673-.708l.495-.06a.79.79 0 0 1 .104-.007c.348 0 .66.216.75.534.157.557.213 1.13.267 1.684.075.77.146 1.496.477 2.002.825 1.308 1.879 1.939 3.228 1.94h.093c.247 0 .512.012.789.024.275.01.562.022.852.022.228 0 .436-.007.627-.023-1.168-.657-1.815-1.617-1.826-2.77 0-.106.006-.208.017-.318.13-1.114.657-1.94 1.563-2.463.756-.477 1.647-.526 2.362-.565.143-.007.28-.015.41-.026a25.09 25.09 0 0 1 1.892-.064c.614 0 1.225.016 1.835.03.768.033 1.706.072 2.602.513.72.354 1.926.946 2.357 2.317.182.568.186 1.169.19 1.7 0 .177.001.345.01.502.017.314.026.62.026.92l-.001.204.705-.026c.835-.032 1.7-.065 2.573-.065.429 0 .775.32.775.713v.463c0 .393-.346.711-.775.711-.83 0-1.637.031-2.493.063-.321.013-.643.025-.965.035-.242 1.183-.736 2.212-1.53 3.198-.922 1.152-2.02 1.765-3.262 1.82-.244.01-.47.018-.687.018zM80.743 85.302c.896.803 1.707 1.583 2.51 2.353 1.284 1.227 2.49 2.386 3.733 3.369a40.888 40.888 0 0 1 1.868 1.593c.752.672 1.404 1.25 2.056 1.679.886.59 3.577 2.369 3.508 5.755-.011.885-.18 1.666-.356 2.498l-.224.973c-.438 1.894-.814 3.529-1.05 5.328-.278 2.632-.6 5.47-.989 8.133 2.787-1.7 5.42-3.312 7.52-4.939.364-.263.796-.663 1.217-1.052 1.664-1.542 4.185-3.873 7.575-4.043h.04c.817 0 1.493.107 2.103.308 2.217.752 3.639 2.216 4.58 3.187.249.254.585.603.724.7a55 55 0 0 0 3.922 2.752l.139.094.61.441c.709.513 1.467 1.062 2.249 1.595l-.067-.196c-.689-2.082-1.47-4.441-1.84-6.898-.195-1.56-.468-3.073-.753-4.67a195.74 195.74 0 0 1-.456-2.605 10.791 10.791 0 0 1-.158-1.715c-.017-2.52 1.309-3.99 2.188-4.963l.316-.351c.618-.68 1.239-1.566 1.842-2.424l.668-.95c1.338-1.775 2.71-3.19 4.04-4.552.65-.672 1.29-1.328 1.89-1.996a65.23 65.23 0 0 1-1.626-.056h-.537c-3.454 0-7.534-.034-9.434-.227l-.286-.043h-.139c-.691-.034-1.85-.093-3.164-.696l-.252-.127c-2.114-1.203-3.225-3.229-4.114-4.857-.422-.809-.787-1.579-1.112-2.262-.265-.566-.492-1.054-.678-1.386l-.085-.162c-.458-.924-1.028-1.845-1.633-2.821-.808-1.303-1.641-2.652-2.38-4.258l-.414-.973-.227-.546c-.515 1.59-.919 3.403-1.26 4.941-.193.867-.378 1.702-.57 2.48-.07.276-1.709 6.748-4.589 9.605l-.217.198c-2.202 1.824-4.89 1.893-7.255 1.951l-.412.01a71.17 71.17 0 0 1-3.472-.1 30.426 30.426 0 0 0-1.206-.044c-1.558 0-2.978-.014-4.343-.03zm5.23 45.295a3.272 3.272 0 0 1-3.152-2.4l-.412-1.5c-.232-.834-.345-1.752-.345-2.797.011-2.01.421-4.101.748-5.78.121-.613.234-1.183.31-1.675.428-2.784.776-5.916 1.06-8.61.306-2.32.759-4.282 1.195-6.178l.13-.563c-.888-.642-1.709-1.376-2.448-2.035a26.255 26.255 0 0 0-1.424-1.22c-1.652-1.315-3.08-2.688-4.462-4.015-.883-.846-1.749-1.68-2.632-2.45-2.685-2.2-6.041-5.233-7.506-8.635l-.601-1.441a3.272 3.272 0 0 1 2.883-4.525l1.525-.062c1.766-.072 3.513-.106 5.504-.106 1.373 0 2.713.016 4.101.03 1.461.017 2.975.035 4.64.035.439.003 1.024.028 1.702.059.847.038 1.865.087 2.885.087l.41.004c.728 0 1.356-.065 1.789-.134.654-1.193 1.724-3.865 1.91-4.866l.061-.268c.23-.81.425-1.73.636-2.707.902-4.184 2.142-9.915 6.532-13.237a3.275 3.275 0 0 1 3.27-.394c.302-.112.624-.183.954-.2l.168-.002c.814 0 1.599.299 2.202.848 2.396 2.172 3.575 5.003 4.526 7.28.16.386.319.762.473 1.12.46.997 1.108 2.05 1.798 3.163.683 1.1 1.387 2.241 2.045 3.549.235.413.555 1.093.904 1.83.279.59.575 1.222.894 1.833.23.463.457.842.644 1.118.2.016.407.034.618.057.5.053 2.414.18 9.219.18 1.244.052 2.123.062 2.906.062h.744l.701-.003c1.538 0 3.277.038 6.087.51l.78.13a3.265 3.265 0 0 1 2.699 2.815l.101.79c.034.242.05.513.05.81l-.003.176c-.165 3.022-2.125 4.601-3.066 5.356l-.291.245-.242.246c-.284.248-.55.637-.92 1.178a25.526 25.526 0 0 1-1.177 1.609c-.951 1.101-1.849 2.027-2.714 2.916-1.173 1.208-2.28 2.349-3.18 3.557-.172.237-.376.526-.59.833-.694.99-1.48 2.115-2.42 3.153l-.217.252c.11.662.229 1.324.351 1.993.3 1.662.607 3.38.827 5.13.23 1.581.849 3.44 1.5 5.41.238.727.48 1.456.7 2.175.15.528.308.981.473 1.46.54 1.56 1.21 3.496 1.227 5.742 0 .603-.05 1.182-.148 1.75l-.169.964a3.27 3.27 0 0 1-3.218 2.712l-.324-.018-.979-.097c-4.882-.525-9.21-3.635-12.364-5.904-.42-.304-.82-.593-1.206-.861a63.717 63.717 0 0 1-4.278-2.995c-.737-.6-1.31-1.166-1.81-1.662-.148-.144-.313-.311-.475-.466-.693.521-1.622 1.338-2.197 1.845-.407.361-.801.706-1.156 1.004-2.666 2.063-5.67 3.897-8.577 5.67-2.572 1.573-5.006 3.059-6.971 4.531l-1.244.934a3.263 3.263 0 0 1-1.963.655z"/>
        </g>
    </g>
</svg>
