<svg xmlns="http://www.w3.org/2000/svg" width="59" height="59" viewBox="0 0 59 59">
    <g fill="#EA008B" fill-rule="evenodd">
        <path fill-rule="nonzero" d="M55.53 29.5c0-14.375-11.655-26.03-26.03-26.03-14.375 0-26.03 11.655-26.03 26.03 0 14.375 11.655 26.03 26.03 26.03 14.375 0 26.03-11.655 26.03-26.03zm3.47 0C59 45.791 45.791 59 29.5 59S0 45.791 0 29.5 13.209 0 29.5 0 59 13.209 59 29.5z"/>
        <path d="M30.836 32h-5.672C24.521 32 24 31.328 24 30.499c0-.827.521-1.499 1.164-1.499h5.672c.643 0 1.164.672 1.164 1.499 0 .829-.521 1.501-1.164 1.501M30.836 38h-5.672C24.521 38 24 37.328 24 36.499c0-.827.521-1.499 1.164-1.499h5.672c.643 0 1.164.672 1.164 1.499 0 .829-.521 1.501-1.164 1.501"/>
        <path fill-rule="nonzero" d="M37.595 23.102l-6.46-6.583h-8.741V41.48h15.212v-4.443a2.279 2.279 0 0 1-.011-.23v-.2c0-.973.76-1.76 1.697-1.76s1.697.787 1.697 1.76v.2h-3.394V23.103zM41 29.999v11.534C41 43.446 39.498 45 37.654 45H22.346C20.502 45 19 43.446 19 41.533V30c0-2.345 3.394-2.345 3.394 0v6.343c0 2.346-3.394 2.346-3.394 0v-6.343h3.394v6.343H19V16.16c0-1.742 1.37-3.16 3.05-3.16h9.78c.444 0 .872.181 1.189.505l7.462 7.604c.325.331.508.783.508 1.255v7.431c.007.067.011.135.011.204z"/>
    </g>
</svg>
