<svg xmlns="http://www.w3.org/2000/svg" width="176" height="31" viewBox="0 0 176 31">
    <g fill="#0050FF" fill-rule="nonzero">
        <path d="M.315 11.808h2.718c.628-.035 1.242.2 1.688.648a2.25 2.25 0 0 1 .65 1.7 2.274 2.274 0 0 1-.646 1.711 2.232 2.232 0 0 1-1.692.668H1.357v2.79H.315v-7.517zm2.546 3.813c.393.03.78-.114 1.057-.396a1.36 1.36 0 0 0 .384-1.07 1.331 1.331 0 0 0-.382-1.053 1.306 1.306 0 0 0-1.047-.38H1.357v2.899H2.86zM8.592 13.805c1.532.044 2.743 1.325 2.714 2.87-.03 1.546-1.287 2.78-2.82 2.765-1.531-.014-2.766-1.27-2.767-2.817 0-.761.305-1.49.846-2.022a2.78 2.78 0 0 1 2.027-.796zm0 4.739a1.906 1.906 0 0 0 1.815-1.132 1.937 1.937 0 0 0-.36-2.121 1.896 1.896 0 0 0-2.085-.458 1.924 1.924 0 0 0-1.201 1.778c-.021.504.163.995.508 1.36.346.364.823.57 1.323.573zM11.67 13.934h1.101l1.086 3.78c.083.278.127.572.135.572h.02c.037-.193.083-.384.14-.572l1.157-3.76h.938l1.15 3.76c.083.278.147.572.147.572h.016c.031-.193.075-.384.132-.572l1.117-3.772h1.074l-1.72 5.383h-1.126l-1.105-3.45a8.01 8.01 0 0 1-.148-.584h-.02s-.064.31-.147.583l-1.098 3.45h-1.133l-1.717-5.39zM22.748 13.805c1.505 0 2.307 1.127 2.307 2.516 0 .137-.032.447-.032.447h-3.871c-.006.486.187.952.534 1.289.347.336.817.512 1.298.487a2.526 2.526 0 0 0 1.596-.628l.423.752a3.176 3.176 0 0 1-2.063.765 2.701 2.701 0 0 1-2.019-.79 2.75 2.75 0 0 1-.803-2.028c-.016-1.719 1.134-2.81 2.63-2.81zm1.265 2.186c-.032-.922-.598-1.369-1.285-1.369a1.533 1.533 0 0 0-1.56 1.37h2.845zM25.941 13.934h.99v.934c0 .134-.007.269-.02.403h.02a1.713 1.713 0 0 1 1.947-1.381v1.006a1.464 1.464 0 0 0-.295-.032 1.6 1.6 0 0 0-1.497 1.264c-.09.314-.133.64-.127.966v2.23H25.94v-5.39zM31.752 13.805c1.504 0 2.307 1.127 2.307 2.516 0 .137-.032.447-.032.447H30.14c-.007.486.187.952.534 1.289.347.336.817.512 1.297.487a2.526 2.526 0 0 0 1.597-.628l.423.752a3.176 3.176 0 0 1-2.064.765 2.701 2.701 0 0 1-2.018-.79 2.75 2.75 0 0 1-.803-2.028c-.02-1.719 1.13-2.81 2.646-2.81zm1.265 2.186c-.032-.922-.599-1.369-1.285-1.369a1.533 1.533 0 0 0-1.56 1.37h2.845zM36.976 13.805a1.768 1.768 0 0 1 1.644.85h.02a3.07 3.07 0 0 1-.02-.363v-2.484h1.022v7.517h-.97v-.528-.362h-.02a1.865 1.865 0 0 1-1.748.998c-1.44 0-2.347-1.147-2.347-2.818 0-1.67 1.006-2.81 2.419-2.81zm.14 4.739c.798 0 1.536-.564 1.536-1.933 0-.954-.495-1.912-1.504-1.912-.843 0-1.537.7-1.537 1.924s.615 1.92 1.505 1.92zM43.166 11.808h1.022v2.452c0 .266-.02.455-.02.455h.02a1.875 1.875 0 0 1 1.708-.91c1.432 0 2.338 1.147 2.338 2.818s-1.021 2.818-2.422 2.818a1.912 1.912 0 0 1-1.676-.922h-.02c.014.134.02.269.02.403v.403h-.97v-7.517zm2.494 6.744c.842 0 1.537-.7 1.537-1.925 0-1.224-.623-1.924-1.505-1.924-.798 0-1.536.563-1.536 1.932 0 .963.495 1.92 1.508 1.92l-.004-.003zM48.69 20.424c.182.131.398.208.622.221.455-.04.837-.36.958-.805l.263-.616-2.23-5.31h1.149l1.337 3.514c.103.278.2.649.2.649h.02s.083-.363.179-.636l1.297-3.527h1.105l-2.494 6.34a1.833 1.833 0 0 1-1.728 1.265c-.37-.004-.73-.12-1.034-.33l.355-.765zM81.016.129c-8.408.033-15.2 6.93-15.178 15.411.022 8.481 6.85 15.342 15.258 15.331 8.407-.011 15.217-6.89 15.217-15.371a15.46 15.46 0 0 0-4.49-10.885A15.19 15.19 0 0 0 81.016.13zM71.01 23.955v-1.373a.194.194 0 0 1 .055-.109c.22 0 1.034-.109 1.254-.109a4.15 4.15 0 0 0 2.394-.769c.387-.301.61-.77.599-1.264a1.469 1.469 0 0 1 .056-1.208c.327-.495.22-1.429.22-1.61.49-.165 1.304-.109 1.033-.713-.22-.712-1.361-2.25-1.09-4.17.108-.987-.598-2.014-1.09-2.525a5.417 5.417 0 0 0-3.483-1.538V7.045a8.176 8.176 0 0 1 5.977 2.425 8.324 8.324 0 0 1 2.404 6.03 8.248 8.248 0 0 1-2.362 6.035 8.1 8.1 0 0 1-5.967 2.42zM91.69 8.527a5.264 5.264 0 0 0-3.81 1.538c-.492.495-1.47 1.538-1.306 2.524.327 1.868-.926 3.459-1.141 4.171-.272.604.49.548 1.033.713 0 .165-.107 1.099.22 1.61.22.403.22.548.056 1.208-.108.439.22.934.598 1.264a4.15 4.15 0 0 0 2.395.769c.22 0 1.305.109 1.525.109 0 0 .399.056.399.108v1.373c-5.444 0-8.381-3.788-8.381-8.454s2.937-8.455 8.38-8.455v1.538l.033-.016zM101.976 4.082h3.32c2.994 0 4.953 1.812 4.953 4.888 0 3.076-1.96 4.94-4.952 4.94h-3.32V4.082zm3.193 8.29c1.96 0 3.265-1.152 3.265-3.402s-1.29-3.334-3.25-3.334h-1.468v6.736h1.453zM114.939 6.663c2.123 0 3.863 1.538 3.863 3.68 0 2.142-1.74 3.68-3.863 3.68s-3.863-1.538-3.863-3.68c0-2.142 1.672-3.68 3.863-3.68zm0 5.874a2.05 2.05 0 0 0 1.504-.646c.391-.416.595-.976.563-1.548a2.095 2.095 0 0 0-.995-1.917 2.056 2.056 0 0 0-2.145 0 2.095 2.095 0 0 0-.995 1.917c-.04.574.161 1.14.554 1.557.394.417.943.649 1.514.637zM123.196 6.663c1.852 0 2.666 1.043 2.666 1.043l-.762 1.208a2.686 2.686 0 0 0-1.852-.77 2.062 2.062 0 0 0-1.537.63 2.1 2.1 0 0 0-.586 1.565 2.144 2.144 0 0 0 .624 1.58c.416.417.985.64 1.57.618a3.218 3.218 0 0 0 2.056-.862l.655 1.264a3.905 3.905 0 0 1-2.886 1.152c-2.339 0-3.807-1.647-3.807-3.68a3.76 3.76 0 0 1 1.137-2.704 3.693 3.693 0 0 1 2.722-1.044zM127.386 8.362h-.925V6.989h.925V4.904h1.689v2.013h1.596v1.429h-1.596v2.746c0 1.151.926 1.316 1.416 1.316a.792.792 0 0 0 .328-.056v1.538a2.45 2.45 0 0 1-.543.056c-.978 0-2.937-.274-2.937-2.637V8.362h.047zM135.332 6.663c2.124 0 3.864 1.538 3.864 3.68 0 2.142-1.74 3.68-3.864 3.68-2.123 0-3.863-1.538-3.863-3.68 0-2.142 1.74-3.68 3.863-3.68zm0 5.874a2.05 2.05 0 0 0 1.504-.646c.392-.416.596-.976.564-1.548a2.095 2.095 0 0 0-.995-1.917 2.056 2.056 0 0 0-2.145 0 2.095 2.095 0 0 0-.995 1.917 2.088 2.088 0 0 0 .564 1.548c.391.415.935.649 1.503.646zM140.341 6.844h1.688v1.208c0 .167-.02.333-.056.495h.056a2.44 2.44 0 0 1 2.231-1.812c.111.004.221.023.327.057v1.663h-.435a1.975 1.975 0 0 0-1.903 1.481c-.115.373-.17.761-.164 1.152v2.818h-1.74V6.844h-.004zM152.366 3.917c2.394 0 3.592 1.317 3.592 1.317l-.87 1.316a4.19 4.19 0 0 0-2.666-1.042c-2.068 0-3.265 1.537-3.265 3.401 0 1.865 1.253 3.515 3.265 3.515a4.174 4.174 0 0 0 2.825-1.26l.926 1.264a5.245 5.245 0 0 1-3.807 1.61 4.894 4.894 0 0 1-3.63-1.457 4.984 4.984 0 0 1-1.43-3.667 4.99 4.99 0 0 1 1.48-3.581 4.902 4.902 0 0 1 3.58-1.416zM160.854 9.461h.22v-.109c0-.934-.599-1.264-1.361-1.264a3.802 3.802 0 0 0-1.904.66l-.654-1.264a4.728 4.728 0 0 1 2.793-.877c1.852 0 2.938 1.042 2.938 2.818v4.372h-1.652v-.511c0-.167.019-.333.055-.495h-.055a2.297 2.297 0 0 1-2.12 1.3c-1.253 0-2.394-.77-2.394-2.194 0-2.27 2.993-2.436 4.134-2.436zm-1.305 3.22c.926 0 1.597-.986 1.597-1.867v-.145h-.327c-.87 0-2.34.109-2.34 1.099-.02.491.308.934 1.07.934v-.02zM164.339 6.844h1.684v1.208c0 .167-.02.333-.056.495h.056a2.44 2.44 0 0 1 2.23-1.812c.112.004.222.023.328.057v1.663h-.435a1.975 1.975 0 0 0-1.904 1.481c-.115.373-.17.761-.163 1.152v2.818h-1.74V6.844zM172.556 6.663c1.995 0 3.1 1.482 3.1 3.35 0 .221-.055.66-.055.66h-4.841a2.001 2.001 0 0 0 2.123 1.868 3.371 3.371 0 0 0 1.996-.77l.654 1.265a4.48 4.48 0 0 1-2.83.986 3.574 3.574 0 0 1-2.666-1.02 3.64 3.64 0 0 1-1.089-2.66c.072-2.145 1.54-3.679 3.608-3.679zm1.36 2.818C173.862 8.547 173.319 8 172.5 8a1.657 1.657 0 0 0-1.688 1.461l3.105.02zM107.308 24.558h-3.428l-.798 2.525h-1.852l3.428-9.828h1.852l3.428 9.828h-1.852l-.778-2.525zm-1.74-5.6a13.149 13.149 0 0 1-.435 1.538l-.87 2.637h2.558l-.798-2.637a13.149 13.149 0 0 1-.435-1.538h-.02zM110.629 20.001h1.688v.805c0 .167-.02.333-.056.495h.056a2.766 2.766 0 0 1 2.502-1.481c1.596 0 2.45.805 2.45 2.69v4.573h-1.74v-4.171c0-.878-.22-1.43-1.09-1.43a1.998 1.998 0 0 0-1.895 1.43 2.59 2.59 0 0 0-.108.934v3.22h-1.74v-7.065h-.067zM118.407 28.234c.225.158.488.253.762.274a1.287 1.287 0 0 0 1.197-.934l.272-.604-2.938-6.973h1.96l1.469 4.062c.116.303.207.616.271.934h.056s.108-.547.22-.934l1.36-4.118h1.904l-3.1 8.18a2.669 2.669 0 0 1-2.511 1.873 2.919 2.919 0 0 1-1.469-.44l.547-1.32z"/>
        <path d="M124.884 20.001h1.852l1.197 4.61c.073.247.132.498.176.753h.056c.039-.26.094-.517.163-.77l1.305-4.61h1.597l1.269 4.63c.07.254.124.51.163.77h.056c.04-.26.094-.516.164-.77l1.197-4.609h1.796l-2.123 7.082h-1.96l-1.197-4.026a6.62 6.62 0 0 1-.163-.77h-.056a6.62 6.62 0 0 1-.164.77l-1.197 4.026h-1.96L124.885 20zM136.637 17.255h1.74v3.402c0 .203-.02.405-.055.604h.056a2.685 2.685 0 0 1 2.394-1.373c1.596 0 2.45.806 2.45 2.69v4.561h-1.74v-4.19c0-.879-.22-1.43-1.09-1.43-.898.01-1.679.625-1.907 1.502a2.59 2.59 0 0 0-.107.934v3.22h-1.74v-9.92zM147.904 19.836c1.995 0 3.1 1.482 3.1 3.35 0 .221-.055.66-.055.66h-4.841a2.001 2.001 0 0 0 2.123 1.868 3.371 3.371 0 0 0 1.996-.77l.654 1.265a4.48 4.48 0 0 1-2.818.982 3.574 3.574 0 0 1-2.666-1.02 3.64 3.64 0 0 1-1.089-2.66c.004-2.137 1.473-3.675 3.596-3.675zm1.305 2.854c-.056-.934-.599-1.481-1.417-1.481a1.657 1.657 0 0 0-1.688 1.481h3.105zM152.15 20.001h1.688v1.208c0 .166-.019.333-.056.495h.056a2.44 2.44 0 0 1 2.231-1.812c.111.004.222.023.328.057v1.755h-.435a1.974 1.974 0 0 0-1.912 1.482c-.115.372-.17.76-.164 1.151v2.818h-1.74v-7.154h.004zM160.368 19.836c1.995 0 3.1 1.482 3.1 3.35 0 .221-.055.66-.055.66h-4.841a2.001 2.001 0 0 0 2.123 1.868 3.371 3.371 0 0 0 1.995-.77l.655 1.265a4.48 4.48 0 0 1-2.83.986 3.574 3.574 0 0 1-2.667-1.02 3.64 3.64 0 0 1-1.088-2.66c.016-2.141 1.484-3.679 3.608-3.679zm1.305 2.854c-.056-.934-.6-1.481-1.417-1.481a1.657 1.657 0 0 0-1.688 1.481h3.105z"/>
    </g>
</svg>
