<svg xmlns="http://www.w3.org/2000/svg" width="60" height="60" viewBox="0 0 60 60">
    <g fill="#EA008B" fill-rule="nonzero">
        <path d="M56.124 29.814C56.124 15.28 44.344 3.5 29.81 3.5 15.28 3.5 3.5 15.281 3.5 29.814s11.78 26.314 26.31 26.314c14.534 0 26.314-11.78 26.314-26.314zm3.5 0c0 16.466-13.348 29.814-29.814 29.814C13.347 59.628 0 46.28 0 29.814S13.347 0 29.81 0c16.466 0 29.814 13.348 29.814 29.814z"/>
        <path d="M37.616 29.191c1.707-1.707 1.707-4.509.001-6.214-1.707-1.705-4.51-1.705-6.216-.002l-8.444 8.448c-1.707 1.707-1.707 4.509-.001 6.215 1.707 1.704 4.51 1.704 6.216.001l8.444-8.448zm-5.964 10.93c-3.077 3.071-8.098 3.071-11.176-.002-3.077-3.077-3.077-8.1 0-11.176l8.445-8.45c3.077-3.07 8.098-3.07 11.176.002 3.077 3.077 3.077 8.1 0 11.176l-8.445 8.45z"/>
        <path d="M35.51 33.793a1.754 1.754 0 0 1-2.48 2.48l-8.696-8.696a1.754 1.754 0 1 1 2.48-2.48l8.697 8.696z"/>
    </g>
</svg>
